# Blender 5.1.0
# www.blender.org
mtllib FinalTurbinegen.mtl
o Cube
v -1.000000 0.523415 0.000000
v -1.000000 1.000000 -0.476585
v -1.000000 1.000000 -2.523415
v -1.000000 0.523415 -3.000000
v -1.000000 -2.000000 -0.476585
v -1.000000 -1.523415 0.000000
v -1.000000 -1.523415 -3.000000
v -1.000000 -2.000000 -2.523415
v 1.000000 1.000000 -0.476585
v 1.000000 0.523415 0.000000
v 1.000000 0.523415 -3.000000
v 1.000000 1.000000 -2.523415
v 1.000000 -1.523415 0.000000
v 1.000000 -2.000000 -0.476585
v 1.000000 -2.000000 -2.523415
v 1.000000 -1.523415 -3.000000
vn 0.6303 0.7173 0.2971
vn 0.6303 0.2971 0.7173
vn 0.6303 -0.2971 0.7173
vn 0.6303 -0.7173 0.2971
vn 0.6303 -0.7173 -0.2971
vn 0.6303 -0.2971 -0.7173
vn 0.6303 0.2971 -0.7173
vn 0.6303 0.7173 -0.2971
vn -0.6303 -0.2971 0.7173
vn -0.6303 -0.7173 0.2971
vn -0.6303 -0.2971 -0.7173
vn -0.6303 -0.7173 -0.2971
vn -0.6303 0.2971 0.7173
vn -0.6303 0.7173 0.2971
vn -0.6303 0.2971 -0.7173
vn -0.6303 0.7173 -0.2971
vt 0.003906 0.785156
vt 0.042969 0.746094
vt 0.214844 0.746094
vt 0.253906 0.785156
vt 0.253906 0.957031
vt 0.214844 0.996094
vt 0.042969 0.996094
vt 0.003906 0.957031
vt 0.613281 0.582031
vt 0.445312 0.582031
vt 0.445312 0.621094
vt 0.613281 0.621094
vt 0.269531 0.582031
vt 0.437500 0.582031
vt 0.437500 0.621094
vt 0.269531 0.621094
vt 0.445312 0.574219
vt 0.613281 0.574219
vt 0.613281 0.535156
vt 0.445312 0.535156
vt 0.437500 0.574219
vt 0.269531 0.574219
vt 0.269531 0.535156
vt 0.437500 0.535156
vt 0.269531 0.980469
vt 0.437500 0.980469
vt 0.437500 0.808594
vt 0.269531 0.808594
vt 0.042969 0.488281
vt 0.003906 0.527344
vt 0.003906 0.699219
vt 0.042969 0.738281
vt 0.214844 0.738281
vt 0.253906 0.699219
vt 0.253906 0.527344
vt 0.214844 0.488281
vt 0.613281 0.808594
vt 0.613281 0.980469
vt 0.445312 0.980469
vt 0.445312 0.808594
vt 0.437500 0.800781
vt 0.269531 0.800781
vt 0.269531 0.628906
vt 0.437500 0.628906
vt 0.445312 0.628906
vt 0.445312 0.800781
vt 0.613281 0.800781
vt 0.613281 0.628906
s 1
usemtl Material.002
f 9/1/1 10/2/2 13/3/3 14/4/4 15/5/5 16/6/6 11/7/7 12/8/8
f 13/9/3 6/10/9 5/11/10 14/12/4
f 7/13/11 16/14/6 15/15/5 8/16/12
f 1/17/13 10/18/2 9/19/1 2/20/14
f 11/21/7 4/22/15 3/23/16 12/24/8
f 6/25/9 13/26/3 10/27/2 1/28/13
f 1/29/13 2/30/14 3/31/16 4/32/15 7/33/11 8/34/12 5/35/10 6/36/9
f 9/37/1 12/38/8 3/39/16 2/40/14
f 16/41/6 7/42/11 4/43/15 11/44/7
f 5/45/10 8/46/12 15/47/5 14/48/4
